REM DIRINDEX 1\3,1\2\4,1\2\5,1\2\6
REM DIRNAME cjc137,folder01,folder02,folder03,folder04,folder05
TITLE ""
FILE "011.mp3" MP3
  TRACK 01 AUDIO
    TITLE "4:cjc137_0423"
    INDEX 01 00:00:00
  TRACK 02 AUDIO
    TITLE "0:"
    INDEX 01 00:01:05
  TRACK 03 AUDIO
    TITLE "6:cjc137_0424"
    INDEX 01 00:01:15
  TRACK 04 AUDIO
    TITLE "0:"
    INDEX 01 00:02:16
  TRACK 05 AUDIO
    TITLE "5:cjc137_0425"
    INDEX 01 00:02:24
  TRACK 06 AUDIO
    TITLE "0:"
    INDEX 01 00:03:29
  TRACK 07 AUDIO
    TITLE "4:cjc137_0426"
    INDEX 01 00:04:35
  TRACK 08 AUDIO
    TITLE "0:"
    INDEX 01 00:05:42
  TRACK 09 AUDIO
    TITLE "6:cjc137_0427"
    INDEX 01 00:05:57
  TRACK 10 AUDIO
    TITLE "0:"
    INDEX 01 00:06:59
  TRACK 11 AUDIO
    TITLE "5:cjc137_0428"
    INDEX 01 00:06:67
  TRACK 12 AUDIO
    TITLE "0:"
    INDEX 01 00:08:03
  TRACK 13 AUDIO
    TITLE "4:cjc137_0429"
    INDEX 01 00:09:12
  TRACK 14 AUDIO
    TITLE "0:"
    INDEX 01 00:10:12
  TRACK 15 AUDIO
    TITLE "6:cjc137_0430"
    INDEX 01 00:10:25
  TRACK 16 AUDIO
    TITLE "0:"
    INDEX 01 00:11:44
  TRACK 17 AUDIO
    TITLE "5:cjc137_0431"
    INDEX 01 00:11:56
  TRACK 18 AUDIO
    TITLE "0:"
    INDEX 01 00:12:56
  TRACK 19 AUDIO
    TITLE "4:cjc137_0432"
    INDEX 01 00:13:65
  TRACK 20 AUDIO
    TITLE "0:"
    INDEX 01 00:14:66
  TRACK 21 AUDIO
    TITLE "6:cjc137_0433"
    INDEX 01 00:15:03
  TRACK 22 AUDIO
    TITLE "0:"
    INDEX 01 00:15:62
  TRACK 23 AUDIO
    TITLE "5:cjc137_0434"
    INDEX 01 00:16:00
  TRACK 24 AUDIO
    TITLE "0:"
    INDEX 01 00:17:00
  TRACK 25 AUDIO
    TITLE "4:cjc137_0435"
    INDEX 01 00:18:07
  TRACK 26 AUDIO
    TITLE "0:"
    INDEX 01 00:19:09
  TRACK 27 AUDIO
    TITLE "6:cjc137_0436"
    INDEX 01 00:19:24
  TRACK 28 AUDIO
    TITLE "0:"
    INDEX 01 00:20:37
  TRACK 29 AUDIO
    TITLE "5:cjc137_0437"
    INDEX 01 00:20:49
  TRACK 30 AUDIO
    TITLE "0:"
    INDEX 01 00:21:51
  TRACK 31 AUDIO
    TITLE "4:cjc137_0438"
    INDEX 01 00:22:60
  TRACK 32 AUDIO
    TITLE "0:"
    INDEX 01 00:23:67
  TRACK 33 AUDIO
    TITLE "6:cjc137_0439"
    INDEX 01 00:24:06
  TRACK 34 AUDIO
    TITLE "0:"
    INDEX 01 00:25:11
  TRACK 35 AUDIO
    TITLE "5:cjc137_0440"
    INDEX 01 00:25:21
  TRACK 36 AUDIO
    TITLE "0:"
    INDEX 01 00:26:28
  TRACK 37 AUDIO
    TITLE "4:cjc137_0441"
    INDEX 01 00:27:36
  TRACK 38 AUDIO
    TITLE "0:"
    INDEX 01 00:28:49
  TRACK 39 AUDIO
    TITLE "6:cjc137_0442"
    INDEX 01 00:28:60
  TRACK 40 AUDIO
    TITLE "0:"
    INDEX 01 00:29:56
  TRACK 41 AUDIO
    TITLE "5:cjc137_0443"
    INDEX 01 00:29:68
  TRACK 42 AUDIO
    TITLE "0:"
    INDEX 01 00:31:08
  TRACK 43 AUDIO
    TITLE "4:cjc137_0444"
    INDEX 01 00:32:11
  TRACK 44 AUDIO
    TITLE "0:"
    INDEX 01 00:33:09
  TRACK 45 AUDIO
    TITLE "6:cjc137_0445"
    INDEX 01 00:33:22
  TRACK 46 AUDIO
    TITLE "0:"
    INDEX 01 00:34:06
  TRACK 47 AUDIO
    TITLE "5:cjc137_0446"
    INDEX 01 00:34:16
  TRACK 48 AUDIO
    TITLE "0:"
    INDEX 01 00:35:15
  TRACK 49 AUDIO
    TITLE "4:cjc137_0447"
    INDEX 01 00:36:25
  TRACK 50 AUDIO
    TITLE "0:"
    INDEX 01 00:37:44
  TRACK 51 AUDIO
    TITLE "6:cjc137_0448"
    INDEX 01 00:37:57
  TRACK 52 AUDIO
    TITLE "0:"
    INDEX 01 00:39:05
  TRACK 53 AUDIO
    TITLE "5:cjc137_0449"
    INDEX 01 00:39:17
  TRACK 54 AUDIO
    TITLE "0:"
    INDEX 01 00:40:38
  TRACK 55 AUDIO
    TITLE "4:cjc137_0450"
    INDEX 01 00:41:45
  TRACK 56 AUDIO
    TITLE "0:"
    INDEX 01 00:42:53
  TRACK 57 AUDIO
    TITLE "6:cjc137_0451"
    INDEX 01 00:42:66
  TRACK 58 AUDIO
    TITLE "0:"
    INDEX 01 00:43:72
  TRACK 59 AUDIO
    TITLE "5:cjc137_0452"
    INDEX 01 00:44:09
  TRACK 60 AUDIO
    TITLE "0:"
    INDEX 01 00:45:18
  TRACK 61 AUDIO
    TITLE "4:cjc137_0453"
    INDEX 01 00:46:25
  TRACK 62 AUDIO
    TITLE "0:"
    INDEX 01 00:47:27
  TRACK 63 AUDIO
    TITLE "6:cjc137_0454"
    INDEX 01 00:47:40
  TRACK 64 AUDIO
    TITLE "0:"
    INDEX 01 00:48:61
  TRACK 65 AUDIO
    TITLE "5:cjc137_0455"
    INDEX 01 00:48:73
  TRACK 66 AUDIO
    TITLE "0:"
    INDEX 01 00:49:74
  TRACK 67 AUDIO
    TITLE "4:cjc137_0456"
    INDEX 01 00:51:07
  TRACK 68 AUDIO
    TITLE "0:"
    INDEX 01 00:52:16
  TRACK 69 AUDIO
    TITLE "6:cjc137_0457"
    INDEX 01 00:52:28
  TRACK 70 AUDIO
    TITLE "0:"
    INDEX 01 00:53:15
  TRACK 71 AUDIO
    TITLE "5:cjc137_0458"
    INDEX 01 00:53:25
  TRACK 72 AUDIO
    TITLE "0:"
    INDEX 01 00:54:36
  TRACK 73 AUDIO
    TITLE "4:cjc137_0459"
    INDEX 01 00:55:40
  TRACK 74 AUDIO
    TITLE "0:"
    INDEX 01 00:56:41
  TRACK 75 AUDIO
    TITLE "6:cjc137_0460"
    INDEX 01 00:56:55
  TRACK 76 AUDIO
    TITLE "0:"
    INDEX 01 00:58:18
  TRACK 77 AUDIO
    TITLE "5:cjc137_0461"
    INDEX 01 00:58:28
  TRACK 78 AUDIO
    TITLE "0:"
    INDEX 01 00:59:28
  TRACK 79 AUDIO
    TITLE "4:cjc137_0462"
    INDEX 01 01:00:37
  TRACK 80 AUDIO
    TITLE "0:"
    INDEX 01 01:01:52
  TRACK 81 AUDIO
    TITLE "6:cjc137_0463"
    INDEX 01 01:01:64
  TRACK 82 AUDIO
    TITLE "0:"
    INDEX 01 01:02:73
  TRACK 83 AUDIO
    TITLE "5:cjc137_0464"
    INDEX 01 01:03:08
  TRACK 84 AUDIO
    TITLE "0:"
    INDEX 01 01:04:23
